<?xml version="1.0" encoding="UTF-8"?><svg id="Layer_1" xmlns="http://www.w3.org/2000/svg" viewBox="0 0 815 1000"><defs><style>.cls-1{fill:#9e5e18;}.cls-1,.cls-2,.cls-3,.cls-4,.cls-5{stroke-width:0px;}.cls-6{fill:none;stroke:#3a702e;stroke-miterlimit:10;}.cls-2{fill:#baa412;}.cls-3{fill:#e5891c;}.cls-4{fill:#3a702e;}.cls-5{fill:#985715;}</style></defs><path class="cls-1" d="M507.29,586.85c1.54-4.43,2.88-8.91,3.88-13.5-4.06,1.5-4.89,4.15-4.05,9.62.08,1.3.13,2.59.16,3.88Z"/><path class="cls-2" d="M448.11,260.78c-3.93,3.95-9.13,5.29-13.7,7.81-6.98,3.01-14.04,5.84-20.84,9.25,0,0,0,0,0,0-6.65,2.71-13.26,5.51-19.67,8.77h0c-8.59,3.74-17.23,7.37-25.75,11.25-4.9,2.23-8.45,8.43-7.97,13.5,3.98-2.63,8-4.86,12.29-6.61,3.36-1.37,6.63-2.99,9.93-4.51,7.25-2.78,14.25-6.15,21.33-9.32h0c5.23-2.1,10.38-4.39,15.41-6.93h0s0,0,0,0c.78-.22,1.61-.34,2.35-.67,7.2-3.23,14.38-6.5,21.36-10.19,3.04-1.61,6.06-8.48,5.27-12.36Z"/><path class="cls-3" d="M403.62,662.54c-1.17,2.26-1.46,2.31-5.49.99,1.83-.33,3.66-.66,5.49-.99Z"/><path class="cls-5" d="M259.02,562.08c0,3.82,0,7.64.01,11.47-.79-3.82-.71-7.64-.01-11.47Z"/><path class="cls-2" d="M394.75,586.14s-2.66-7.99,4.27-12.15c6.92-4.16-5.4-9.25-5.4-9.25l-4.45,13.96,4.24,10.18,1.35-2.74Z"/><path class="cls-2" d="M244.93,573.35s20.11,91.53,90,117.14l-55.71-63.51-28.17-59.17-6.11,5.54Z"/><path class="cls-2" d="M278.26,580.1s25.54,101.24,135.56,79.9l-28.1,18.48-56.73-12.14-63.45-43.3-6.51-49.5,19.23,6.55Z"/><path class="cls-4" d="M284.35,98.35c2.01-1.99,4.64-2.54,7.27-2.8,12.43-1.19,24.51.37,36.28,4.56,11.63,4.15,22.64,9.62,33.48,15.48,9.26,5.01,18.33,10.34,27.26,15.93.73.46,1.37,1.15,2.5,1.26v-32.69c-2.72-1.74-5.81-2.92-8.83-4.2-8.56-3.63-17.36-6.48-26.54-8.09-6.56-1.15-13.11-1.12-19.72-.53-5.78.51-11.52,1.22-17.21,2.32-3.76.72-7.49,1.59-11.23,2.41-.52.11-1.01.36-1.77,0,4.02-1.53,8.04-2.46,12.04-3.44,8.67-2.13,17.46-3.59,26.37-4.09,2.83-.16,5.72.11,8.53.49,12.28,1.67,23.93,5.53,35.25,10.47,1.71.75,3.43,1.48,5.18,2.23,6.45-2.9,12.94-5.62,19.64-7.82,6.88-2.25,13.86-4.07,21.05-4.92,5.32-.63,10.64-.43,15.98.24,9.05,1.14,17.91,3.06,26.67,5.52,1.28.36,2.54.79,3.88,1.22-.53.54-1.02.28-1.48.16-9.26-2.31-18.63-4.01-28.17-4.71-1.24-.09-2.48-.3-3.72-.39-9.37-.68-18.51.71-27.47,3.34-7.8,2.29-15.36,5.23-22.66,8.82-.56.27-1.09.59-1.74.94v34.03c2.28-2.33,4.42-4.19,6.7-5.88,5.18-3.84,10.76-7.02,16.45-10,15.44-8.08,31.47-14.79,48-20.29,3.81-1.27,7.66-2.41,11.61-3.14,4.4-.81,8.84-1.23,13.27-.24,2.53.57,4.97,1.39,6.52,4.04-3.78,1.64-7.45,3.26-11.13,4.83-12.79,5.46-25.59,10.91-38.39,16.37-11.97,5.11-23.95,10.22-35.92,15.34-4.18,1.79-8.39,3.52-12.52,5.42-1.6.74-3.21.88-4.91,1-3.36.24-6.4-.36-9.54-1.79-12.9-5.88-26.06-11.17-39.22-16.44-20.12-8.05-40.26-16.03-60.39-24.04-.49-.2-1.05-.27-1.38-.91Z"/><path class="cls-2" d="M393.51,83.85c-1.84-23.91-1.85-47.96,0-71.87,1.85,23.91,1.84,47.96,0,71.87h0Z"/><path class="cls-2" d="M407.4,75.52c3.92-18.07,9.15-35.76,15.72-53.05-3.91,18.07-9.16,35.76-15.72,53.05h0Z"/><path class="cls-2" d="M421.21,75.23c6.9-11.86,14.98-23.03,24.11-33.27-6.89,11.87-14.99,23.02-24.11,33.27h0Z"/><path class="cls-2" d="M378.92,75.52c-6.56-17.29-11.81-34.97-15.72-53.05,6.57,17.28,11.8,34.98,15.72,53.05h0Z"/><path class="cls-2" d="M365.1,75.23c-9.13-10.25-17.23-21.4-24.11-33.27,9.14,10.24,17.22,21.41,24.11,33.27h0Z"/><path class="cls-2" d="M549.25,520.44c.09-14.6-1.95-29.12-4.22-43.62-3.47-22.12-9.57-43.64-15.86-65.08-5.07-17.31-10.77-34.43-16.48-51.56-9.83-29.46-20.05-58.85-27.03-89.18-2.19-9.51-4.69-19-6.24-28.62-1.68-10.42-2.83-20.96-3.43-31.49-.82-14.07-.86-28.18.15-42.27,1.08-15.36,2.01-30.74,3.01-46.11,0-.1.02-.2.04-.3.5-2.91,1-5.82,1.5-8.73-4.85,12.38-7.82,25.19-10.16,38.09-6.41,35.12-8.15,70.46-3.23,105.96,1.59,11.46,3.13,22.93,6.35,34.09.02.08.04.16.05.24,1.93,11.28,4.94,22.32,7.86,33.36,3.99,15.05,7.91,30.12,13.22,44.77.02.05.03.1.05.15,8.54,30.07,18.89,59.61,25.75,90.15,4.22,22.47,5.7,45.09,1.58,67.64-11.65,63.85-45.08,110.09-108.07,131.99-.18.06-.36.1-.54.13-1.56.21-3.1.49-4.62.85,0,0,.01,0,.01,0-35.13,6.54-61.82-2.02-81.53-15.48-.78-.54-1.26-1.43-1.26-2.38,0-1.17.17-2.36.51-3.55,1.41-4.8,5.51-7.6,11.51-7.91,4.57-.23,8.98.75,13.44,1.55,9.01,1.65,17.87,4.23,27.1,4.58.79.4,1.61.48,2.43.47,12.1,2.3,24.31,2.51,36.5,1.11,16.47-1.88,31.66-7.24,44.39-18.36,2.01-1,3.7-2.37,5.19-3.94,1.49-1.55,2.78-3.31,4.01-5.09,16.45-23.88,24.03-50.15,19.79-79.08-1.72-11.67-7.2-21.87-16.35-29.88-11.44-10.04-24.59-13.88-38.77-13.72h-.01c-2.72-.07-5.3.09-7.75.47-.04,0-.08,0-.12.01-8.56,1.29-15.44,4.99-20.78,9.28-9.08,7.3-15.07,17.75-17.33,29.18-3.47,17.54-5.37,45.43,5.09,79.09.66,2.12-1.24,4.14-3.39,3.63-4.95-1.16-9.95-2.13-15.03-2.71-10.85-1.23-21.72-2.47-32.64-.7h-.01c-13.73.98-26.94,3.6-37.63,13.1-.24.22-.48.44-.71.66-1.21,1.18-3.17,1.03-4.23-.29-.32-.4-.64-.81-.96-1.21.39-.27.79-.51,1.17-.79,10.02-7.31,16.35-17.2,22.47-26.76l.91-1.42c7.52-11.71,13.92-23.93,20.12-35.74,6.96-13.28,14.17-27,22.87-39.82,13.07-19.25,26.23-31.99,41.4-40.08,15.73-8.39,31.26-7.7,50.35,2.24,1.71.89,4.25,1.95,6.53.9,2.36-1.07,2.99-3.74,3.26-4.87,1.15-4.84,2.18-10.62,1.04-16.85-2.15-11.75-8.63-18.67-19.8-21.18-12.53-2.81-26.54-1.16-40.52,4.76-18.25,7.74-34.44,20.07-48.11,36.67-13.24,16.07-22.34,32.81-31.97,50.54l-2.95,5.43c-1.72,3.16-3.4,6.33-5.08,9.5-5.81,11-11.82,22.38-19.62,32.41-5.17,6.65-10.17,12.28-15.07,16.97-1.43,1.37-3.8.9-4.62-.9-.3-.65-.56-1.25-.81-1.82,0-.23,0-.46,0-.69-2.56-5.23-4.87-10.65-6.93-16.27-4.26-11.5-7.55-23.78-9.92-36.81-4.1-22.55-2.63-45.18,1.58-67.64,6.86-30.55,17.23-60.08,25.77-90.15.01-.05.03-.1.05-.15,5.31-14.66,9.23-29.74,13.22-44.77,2.93-11.05,5.93-22.08,7.85-33.38.01-.08.03-.16.05-.24,3.22-11.15,4.77-22.63,6.36-34.09,4.91-35.49,3.18-70.83-3.23-105.96-2.36-12.9-5.32-25.71-10.16-38.09.5,2.92,1,5.83,1.5,8.75.02.1.03.2.04.3.99,15.37,1.91,30.74,3.01,46.11.99,14.08.95,28.19.15,42.26-.6,10.53-1.76,21.08-3.43,31.49-1.56,9.63-4.05,19.11-6.25,28.63-6.99,30.33-17.2,59.72-27.02,89.18-5.71,17.12-11.41,34.25-16.49,51.56-6.28,21.42-12.39,42.94-15.85,65.06-1.66,10.6-3.19,21.19-3.87,31.83-.02.33-.11.66-.24.97-14.55,31.82-16.32,58.18-5.93,88,1.84,5.28,7.2,12.47,15.02,16.62,6.51,3.46,13.26,5.55,19.95,6.34.86.1,1.62.57,2.08,1.3.99,1.56,2,3.12,3.03,4.65l.21.37c5.45,11.58,12.79,22.21,22.56,31.56,11.72,11.21,25.08,19.36,39.85,24.79,5.71,2.09,11.64,3.78,17.75,5.09,17.15,3.66,34.21,4.43,51.14,2.18,7.6-1.01,15.19-2.64,22.74-4.88.08-.02.16-.04.24-.06.99-.2,2.01-.35,2.99-.65,15.89-4.71,30.04-12.01,42.79-21.38v.02c38.45-23.82,57.62-62.74,67.19-95.02.18-.43.34-.88.47-1.35.23-.84.43-1.68.65-2.52,2.31-8.31,3.98-16.1,5.19-22.99.47-2.42.92-4.83,1.35-7.26,1.23-6.96,1.77-13.89,1.83-20.8,0-.27.01-.43.01-.43h-.01ZM393.68,580.86c-.34-1.89.44-3.82,2.05-4.88,0,0,.01-.01.03-.01,17.32-11.36,39.57-12.43,58.09-3.14.11.05.23.12.35.17,1.17.84,2.32,1.7,3.5,2.52,11.85,8.24,16.88,18.92,14.13,30-.04.18-.1.36-.18.52-2.28,5.37-5.22,10.27-10.12,13.69-.21.14-.43.27-.67.36-5.03,2.04-10.13,2.95-15.3,2.95-3.74,0-7.51-.48-11.3-1.34-4.38-.99-8.77-2.01-13.15-3.05-5.32-1.26-10.59-2.74-15.87-4.2-.84-.23-1.52-.82-1.87-1.62-2.64-6.1-7.16-17.85-9.69-31.97ZM248.13,599.96c-4.67-5.38-7.17-11.56-8.61-21.32-.32-2.15-.56-4.28-.73-6.41-.28-3.56,4.83-4.41,5.65-.93.82,3.48,1.69,6.95,2.63,10.4.3,1.14.72,2.19,1.52,3.03.32.33.6.71.72,1.16,1.07,3.81,2.32,7.54,3.7,11.2,1.12,2.96-2.71,5.35-4.79,2.97-.03-.03-.05-.06-.08-.09Z"/><path class="cls-2" d="M399.11,104.27c11.82-7.73,25.91-12.13,40.04-12.48-13.99,1.72-27.56,5.95-40.04,12.48h0Z"/><path class="cls-2" d="M402.25,110.22c10.34-6.12,21.9-10.27,33.76-12.19-11.55,3.25-22.81,7.28-33.76,12.19h0Z"/><path class="cls-2" d="M404.59,117.66c5.22-3.06,10.47-6.08,15.96-8.66,5.59-2.38,11.4-4.12,17.28-5.57-5.61,2.22-11.38,4.04-16.88,6.49-5.5,2.47-10.79,5.4-16.36,7.74h0Z"/><path class="cls-2" d="M383.09,104.69c-12.34-6.79-25.82-11.3-39.77-13.32,14.12.65,28.11,5.34,39.77,13.32h0Z"/><path class="cls-2" d="M381.93,110.54c-10.91-4.99-22.14-9.11-33.66-12.45,11.84,2.01,23.37,6.25,33.66,12.45h0Z"/><path class="cls-2" d="M381.54,118.31c-5.6-2.28-10.91-5.17-16.43-7.58-5.53-2.4-11.31-4.17-16.94-6.34,5.9,1.4,11.72,3.09,17.33,5.41,5.51,2.52,10.79,5.49,16.04,8.51h0Z"/><path class="cls-4" d="M626.99,521.71c-1.84-21.09-6.57-41.13-13.45-61.09-6.38-18.5-13.92-36.35-21.89-54.21-9.91-22.2-20.47-44.21-30.64-66.31-33.52-72.81-54.11-98.83-53.84-162.65.39-93.06,54.37-176.43,54.59-177.47-5,3.34-8.24,5.86-12.11,11.03-14.81,19.8-26.28,41.69-35.12,65.2-11.13,29.62-17.02,60.4-19.37,91.9-.89,11.96-.9,23.74-.41,35.63.54,13.24,1.99,26.12,4.67,39.07,1.47,8.58,3.23,17.01,5.46,25.44,2.23,8.43,4.67,16.71,7.19,25.11,3.76,12.53,7.51,25.16,12.23,37.41,6.3,20.46,13.34,40.69,19.3,61.25,3.73,12.86,7.27,25.72,11.16,38.52.1.84.32,1.57.71,2.35,4.01,18.78,8.54,38.06,11.08,57,4.83,36.09,3.24,70.71-8.05,105.4-.47.73-1.01,1.46-1.31,2.28-4.34,11.88-9.69,22.95-16.27,33.74-27.42,47.38-76.31,83.88-132.35,88.04-53.5,2.53-122.63-8.96-155.01-57.48-.45-.67,0,.04,0,.02-4.84-6.68-5.64-6.24-10.33-14.31-33.44-57.5-34.14-127.35-15-190.49,2.34-6.93,4.69-13.64,7.08-20.46,1.26-3.59,2.57-7.16,3.85-10.73.02-.05.05-.12.07-.17,21.8-59.92,36.83-114.1,45.08-177.32,1.79-13.69,2.65-25.61,2.17-38.68-.48-13.07-1.14-22.61-2.87-35.75-5.06-38.52-9.41-65.72-27.33-102.38-11.82-24.18-32.1-49-52.03-68.06,17.91,20.12,36.89,45.8,46.56,70.37,20.2,51.35,19.74,95.2,15.19,148.66-6.55,70.89-23.41,132.81-46.02,199.93-.36,1.06-.71,2.17-1.09,3.26-.53,1.54-1.07,3.2-1.58,4.75-.29.88-.62,1.83-.89,2.66-.28.83-.66,1.94-.88,2.64-12.04,38.1-21.22,76.63-25.72,116.3-.43,3.34-.78,6.66-1.08,9.97h0s-1.29,9.37-.85,23.63c-.09-.06-.2-.13,0,.16,0,0,0,0,0,.01-.48-.6-1.22-1.53,0,.02.58,18.14,3.98,44.11,16.4,68.72.03.06.06.12.09.18,17.09,37.85,46.34,67.6,85.18,88.6,12.69,6.86,27.59,12.29,41.73,15.85.42.1.83.22,1.18.31,15.23,3.93,30.27,6.48,45.97,7.3,5.7.67,11.42.93,17.15.86,4.69-.06,9.36-.19,14.01-.48,20.73-1.28,40.7-4.31,60.79-9.6-.43-.12-.86-.23-1.29-.35.46.04.87.14,1.29.35,5.23-.9,10.36-2.63,15.33-4.33,22.15-7.55,41.73-17.67,60.73-31.26,2.71-1.43,4.88-3.43,7.12-5.49,20.92-19.29,37.06-40.49,49.79-65.94,2.63-4.89,5.01-9.84,7.02-15.02,2.01-5.18,3.79-10.36,5.46-15.69,5.14-16.39,8.74-32.78,10.44-49.89.18-.88.57-1.75.62-2.66.88-15.2,1.43-30.5.1-45.67Z"/><path class="cls-2" d="M420.98,407.7c4.35-6.01,9.43-13.44,15.23-22.3-.07-3.27-2.33-7.17-6.79-11.71-4.47-4.53-10.59-9.79-18.4-15.78-4.4,5.75-8.92,11.47-13.56,17.14-5.93,7.57-10.13,13.5-12.62,17.79,8.3,8.63,16.47,17.24,24.54,25.8,3.37-1.29,7.24-4.93,11.59-10.95Z"/><path class="cls-2" d="M423,349.07c4.35-6.01,9.43-13.44,15.23-22.3-.07-3.27-2.33-7.17-6.79-11.71-4.47-4.53-10.59-9.79-18.4-15.78-4.4,5.75-8.92,11.47-13.56,17.14-5.93,7.57-10.13,13.5-12.62,17.79,8.3,8.63,16.47,17.24,24.54,25.8,3.37-1.29,7.24-4.93,11.59-10.95Z"/><path class="cls-2" d="M31.98,816.04h30.71l31.84,99.94h-27.89l-5.17-19.57h-28.26l-5.17,19.57H0l31.98-99.94ZM56.63,878.11l-9.3-35.19-9.3,35.19h18.59Z"/><path class="cls-2" d="M102.84,915.98v-99.94h27.47v76.01h45.36v23.93h-72.83Z"/><path class="cls-2" d="M212.87,915.98v-99.94h68.61v23.93h-41.14v16.61h33.53v22.24h-33.53v37.16h-27.47Z"/><path class="cls-2" d="M308.81,816.04h30.71l31.84,99.94h-27.89l-5.17-19.57h-28.26l-5.17,19.57h-28.03l31.98-99.94ZM333.46,878.11l-9.3-35.19-9.3,35.19h18.59Z"/><path class="cls-2" d="M379.68,915.98v-99.94h27.47v99.94h-27.47Z"/><path class="cls-2" d="M419.55,895.57l45.36-55.6h-43.25v-23.93h76.36v20.41l-42.55,55.6h43.39v23.93h-79.32v-20.41Z"/><path class="cls-2" d="M555.5,916.68c-7.61,0-14.51-1.43-20.71-4.29-6.2-2.86-11.53-6.71-15.99-11.54-4.46-4.83-7.89-10.28-10.28-16.33-2.4-6.05-3.59-12.32-3.59-18.79s1.27-13,3.8-19c2.54-6,6.08-11.38,10.64-16.12,4.55-4.74,9.95-8.47,16.2-11.19,6.25-2.72,13.08-4.08,20.5-4.08s14.51,1.43,20.71,4.29c6.2,2.86,11.5,6.74,15.92,11.61,4.41,4.88,7.82,10.35,10.21,16.4,2.4,6.05,3.59,12.27,3.59,18.65s-1.25,12.86-3.73,18.86c-2.49,6.01-6.01,11.38-10.57,16.12-4.56,4.74-9.93,8.49-16.13,11.26-6.2,2.77-13.05,4.15-20.57,4.15ZM532.81,866.01c0,3.38.47,6.64,1.41,9.78.94,3.15,2.35,5.96,4.23,8.45,1.88,2.49,4.25,4.46,7.11,5.91,2.86,1.46,6.27,2.18,10.21,2.18s7.37-.75,10.29-2.25c2.91-1.5,5.28-3.54,7.11-6.12,1.83-2.58,3.19-5.44,4.09-8.59.89-3.14,1.34-6.36,1.34-9.64s-.47-6.62-1.41-9.71c-.94-3.1-2.35-5.89-4.23-8.37-1.88-2.49-4.27-4.43-7.18-5.84s-6.29-2.11-10.14-2.11-7.35.75-10.21,2.25c-2.87,1.5-5.24,3.5-7.11,5.98-1.88,2.49-3.26,5.3-4.16,8.45-.89,3.15-1.34,6.36-1.34,9.64Z"/><path class="cls-2" d="M663.27,916.68c-7.61,0-14.51-1.43-20.71-4.29-6.2-2.86-11.53-6.71-15.99-11.54-4.46-4.83-7.89-10.28-10.28-16.33-2.4-6.05-3.59-12.32-3.59-18.79s1.27-13,3.8-19c2.54-6,6.08-11.38,10.64-16.12,4.55-4.74,9.95-8.47,16.2-11.19,6.25-2.72,13.08-4.08,20.5-4.08s14.51,1.43,20.71,4.29c6.2,2.86,11.5,6.74,15.92,11.61,4.41,4.88,7.82,10.35,10.21,16.4,2.4,6.05,3.59,12.27,3.59,18.65s-1.25,12.86-3.73,18.86c-2.49,6.01-6.01,11.38-10.57,16.12-4.56,4.74-9.93,8.49-16.13,11.26-6.2,2.77-13.05,4.15-20.57,4.15ZM640.59,866.01c0,3.38.47,6.64,1.41,9.78.94,3.15,2.35,5.96,4.23,8.45,1.88,2.49,4.25,4.46,7.11,5.91,2.86,1.46,6.27,2.18,10.21,2.18s7.37-.75,10.29-2.25c2.91-1.5,5.28-3.54,7.11-6.12,1.83-2.58,3.19-5.44,4.09-8.59.89-3.14,1.34-6.36,1.34-9.64s-.47-6.62-1.41-9.71c-.94-3.1-2.35-5.89-4.23-8.37-1.88-2.49-4.27-4.43-7.18-5.84s-6.29-2.11-10.14-2.11-7.35.75-10.21,2.25c-2.87,1.5-5.24,3.5-7.11,5.98-1.88,2.49-3.26,5.3-4.16,8.45-.89,3.15-1.34,6.36-1.34,9.64Z"/><path class="cls-2" d="M753.43,866.85v49.13h-27.47v-99.94h21.41l40.15,50.82v-50.82h27.47v99.94h-21.84l-39.73-49.13Z"/><path class="cls-4" d="M165.23,967.69l9.72,16.72,9.81-16.72h4.43l-12.21,20.38v11.7h-4.07v-11.79l-12.16-20.29h4.48Z"/><path class="cls-4" d="M227.18,1000c-2.26,0-4.31-.45-6.15-1.36-1.84-.9-3.43-2.13-4.77-3.68-1.34-1.55-2.38-3.3-3.1-5.24-.72-1.94-1.09-3.94-1.09-5.99s.39-4.18,1.15-6.12c.77-1.94,1.84-3.68,3.21-5.2,1.37-1.52,2.98-2.73,4.82-3.61,1.84-.89,3.84-1.33,6.01-1.33s4.31.47,6.15,1.4c1.84.93,3.42,2.18,4.75,3.75,1.33,1.57,2.35,3.31,3.07,5.24.72,1.93,1.09,3.9,1.09,5.92,0,2.14-.38,4.18-1.13,6.12-.75,1.94-1.82,3.68-3.19,5.2-1.37,1.52-2.98,2.72-4.82,3.59s-3.84,1.31-6.01,1.31ZM216.2,983.73c0,1.63.26,3.2.79,4.72.53,1.52,1.27,2.87,2.24,4.04.97,1.17,2.13,2.11,3.48,2.8,1.36.69,2.86,1.04,4.52,1.04s3.26-.36,4.61-1.08c1.36-.72,2.51-1.69,3.46-2.89.95-1.2,1.67-2.56,2.17-4.07s.75-3.03.75-4.56c0-1.63-.26-3.19-.79-4.7-.53-1.51-1.28-2.85-2.26-4.04-.98-1.19-2.14-2.12-3.48-2.8-1.34-.68-2.83-1.02-4.45-1.02-1.72,0-3.26.35-4.61,1.06-1.36.71-2.51,1.66-3.46,2.87-.95,1.2-1.68,2.55-2.19,4.04-.51,1.49-.77,3.02-.77,4.59Z"/><path class="cls-4" d="M283.85,1000c-2.56,0-4.72-.44-6.47-1.33-1.75-.89-3.15-2.09-4.21-3.61-1.06-1.52-1.83-3.24-2.31-5.17-.48-1.93-.72-3.92-.72-5.96v-16.22h4.07v16.22c0,1.57.16,3.09.48,4.59.32,1.49.84,2.82,1.56,4,.72,1.17,1.7,2.11,2.94,2.8,1.24.69,2.77,1.04,4.61,1.04s3.42-.35,4.66-1.06c1.24-.71,2.22-1.66,2.94-2.85.72-1.19,1.24-2.52,1.56-4,.32-1.47.47-2.98.47-4.52v-16.22h4.07v16.22c0,2.17-.25,4.22-.75,6.17-.5,1.94-1.29,3.65-2.37,5.13-1.09,1.48-2.49,2.64-4.23,3.5-1.73.86-3.84,1.29-6.31,1.29Z"/><path class="cls-4" d="M350.5,971.31h-11.08v28.47h-4.07v-28.47h-11.08v-3.61h26.23v3.61Z"/><path class="cls-4" d="M403.54,967.69v32.08h-4.07v-14.59h-17.68v14.59h-4.07v-32.08h4.07v13.87h17.68v-13.87h4.07Z"/><path class="cls-4" d="M478.07,967.87h3.84l4.25,11.16,4.3-11.16h3.84l-5.56,13.96,5.52,13.24,10.85-27.38h4.43l-13.43,32.08h-3.53l-6.38-15.14-6.42,15.14h-3.53l-13.38-32.08h4.39l10.9,27.38,5.47-13.24-5.56-13.96Z"/><path class="cls-4" d="M536.36,999.77v-32.08h4.07v32.08h-4.07Z"/><path class="cls-4" d="M574.79,975.19v24.58h-4.07v-32.08h3.44l19.63,25.08v-25.03h4.07v32.04h-3.71l-19.35-24.58Z"/><path class="cls-4" d="M641.04,1000c-2.11,0-4.08-.46-5.9-1.38-1.83-.92-3.41-2.15-4.77-3.71-1.36-1.55-2.41-3.3-3.16-5.24s-1.13-3.95-1.13-6.03.38-4.22,1.13-6.17,1.8-3.67,3.14-5.17c1.34-1.51,2.92-2.69,4.75-3.55,1.82-.86,3.81-1.29,5.95-1.29,3.1,0,5.67.65,7.69,1.94,2.02,1.3,3.54,2.98,4.57,5.06l-3.12,2.17c-.94-1.87-2.22-3.25-3.84-4.16s-3.42-1.36-5.38-1.36c-1.63,0-3.11.35-4.43,1.04-1.33.69-2.46,1.64-3.41,2.82-.95,1.19-1.67,2.54-2.17,4.04-.5,1.51-.75,3.07-.75,4.7,0,1.72.28,3.34.84,4.86.56,1.52,1.35,2.86,2.37,4.02s2.22,2.07,3.57,2.73c1.36.66,2.82.99,4.39.99,1.84,0,3.59-.47,5.24-1.4,1.66-.93,3.23-2.36,4.7-4.29v4.2c-2.89,3.43-6.31,5.15-10.26,5.15ZM650.81,986.85h-6.92v-3.07h10.36v15.99h-3.44v-12.92Z"/><line class="cls-6" x1="815" y1="983.73" x2="703.96" y2="983.73"/><line class="cls-6" x1="111.04" y1="983.73" y2="983.73"/></svg>